<svg version="1.1" id="Layer_1" xmlns="http://www.w3.org/2000/svg" xmlns:xlink="http://www.w3.org/1999/xlink" x="0px" y="0px"
	 width="100%" viewBox="0 0 96 96" enable-background="new 0 0 96 96" xml:space="preserve">
<path fill="#000000" opacity="1.000000" stroke="none" 
	d="
M65.000000,97.000000 
	C43.333336,97.000000 22.166674,97.000000 1.000009,97.000000 
	C1.000006,65.000008 1.000006,33.000019 1.000003,1.000021 
	C32.999985,1.000014 64.999969,1.000014 96.999969,1.000007 
	C96.999977,32.999981 96.999977,64.999962 96.999985,96.999969 
	C86.500000,97.000000 76.000000,97.000000 65.000000,97.000000 
M18.251759,22.231333 
	C11.405206,30.647036 8.590361,40.119766 8.861976,51.099827 
	C9.478947,76.040932 32.078716,93.250015 57.670830,88.621101 
	C64.331299,87.416405 70.777077,84.978836 75.786858,79.004890 
	C76.337601,78.692429 76.969589,78.469559 77.427269,78.054489 
	C91.137550,65.620697 92.878616,41.045483 82.098015,25.356556 
	C68.070229,4.942029 34.409851,2.881648 18.251759,22.231333 
z"/>
<path fill="#FFE082" opacity="1.000000" stroke="none" 
	d="
M75.088486,79.079018 
	C70.777077,84.978836 64.331299,87.416405 57.670830,88.621101 
	C32.078716,93.250015 9.478947,76.040932 8.861976,51.099827 
	C8.590361,40.119766 11.405206,30.647036 18.963680,22.094769 
	C21.579969,21.394262 23.561081,21.010687 25.376680,20.238129 
	C41.354324,13.439463 60.595898,17.879475 71.181763,30.894503 
	C79.713722,41.384315 84.002060,53.310341 78.929764,66.587585 
	C79.412209,62.839836 78.018906,60.535076 74.603188,59.091248 
	C70.290031,58.882004 68.763504,61.009460 69.048012,64.639847 
	C69.336662,68.322968 71.704178,69.298630 75.304245,68.770844 
	C76.732681,68.104187 77.853767,67.532097 78.988380,67.353958 
	C77.697433,71.524948 76.392960,75.301979 75.088486,79.079018 
M28.210005,49.050858 
	C24.290007,48.881931 22.763453,51.009453 23.048023,54.639881 
	C23.336727,58.323017 25.704172,59.298805 29.643873,58.651352 
	C34.350777,54.262306 34.263969,52.985714 28.210005,49.050858 
M47.608944,72.661064 
	C49.376999,70.325859 52.622974,67.909973 52.501110,65.677948 
	C52.377060,63.405869 48.937290,61.314819 46.174786,59.051361 
	C40.823311,59.824631 38.811306,61.885487 39.011749,66.388321 
	C39.215942,70.975426 41.280510,72.658226 47.608944,72.661064 
M45.622673,38.662998 
	C49.474350,37.114807 51.562462,33.775681 50.673748,30.196405 
	C50.013813,27.538544 46.949966,25.477562 44.161915,23.049282 
	C38.077175,23.333063 34.920692,26.125988 35.007233,31.149540 
	C35.096275,36.317917 38.566689,39.003757 45.622673,38.662998 
z"/>
<path fill="#FFD551" opacity="1.000000" stroke="none" 
	d="
M75.437668,79.041954 
	C76.392960,75.301979 77.697433,71.524948 78.999924,67.375488 
	C78.997948,67.003067 78.954453,66.979080 78.954453,66.979080 
	C84.002060,53.310341 79.713722,41.384315 71.181763,30.894503 
	C60.595898,17.879475 41.354324,13.439463 25.376680,20.238129 
	C23.561081,21.010687 21.579969,21.394262 19.282194,21.956528 
	C34.409851,2.881648 68.070229,4.942029 82.098015,25.356556 
	C92.878616,41.045483 91.137550,65.620697 77.427269,78.054489 
	C76.969589,78.469559 76.337601,78.692429 75.437668,79.041954 
z"/>
<path fill="#FECA2A" opacity="1.000000" stroke="none" 
	d="
M44.956882,23.150715 
	C46.949966,25.477562 50.013813,27.538544 50.673748,30.196405 
	C51.562462,33.775681 49.474350,37.114807 45.112194,38.482861 
	C37.250416,32.699135 37.205368,29.724388 44.369953,23.938164 
	C44.616665,23.738918 44.763496,23.415993 44.956882,23.150715 
z"/>
<path fill="#FECA29" opacity="1.000000" stroke="none" 
	d="
M46.949379,59.144501 
	C48.937290,61.314819 52.377060,63.405869 52.501110,65.677948 
	C52.622974,67.909973 49.376999,70.325859 47.106701,72.472839 
	C41.493797,66.623573 41.517258,65.729912 46.949379,59.144501 
z"/>
<path fill="#E8B525" opacity="1.000000" stroke="none" 
	d="
M44.559399,23.099998 
	C44.763496,23.415993 44.616665,23.738918 44.369953,23.938164 
	C37.205368,29.724388 37.250416,32.699135 44.779785,38.576653 
	C38.566689,39.003757 35.096275,36.317917 35.007233,31.149540 
	C34.920692,26.125988 38.077175,23.333063 44.559399,23.099998 
z"/>
<path fill="#E7B425" opacity="1.000000" stroke="none" 
	d="
M46.562084,59.097931 
	C41.517258,65.729912 41.493797,66.623573 46.775444,72.570190 
	C41.280510,72.658226 39.215942,70.975426 39.011749,66.388321 
	C38.811306,61.885487 40.823311,59.824631 46.562084,59.097931 
z"/>
<path fill="#E7B425" opacity="1.000000" stroke="none" 
	d="
M28.997038,58.865192 
	C25.704172,59.298805 23.336727,58.323017 23.048023,54.639881 
	C22.763453,51.009453 24.290007,48.881931 28.537748,49.435318 
	C26.157379,52.874939 27.459797,55.871773 28.997038,58.865192 
z"/>
<path fill="#E7B425" opacity="1.000000" stroke="none" 
	d="
M74.996887,68.865410 
	C71.704178,69.298630 69.336662,68.322968 69.048012,64.639847 
	C68.763504,61.009460 70.290031,58.882004 74.537697,59.435242 
	C72.156784,62.874908 73.460060,65.871857 74.996887,68.865410 
z"/>
<path fill="#FECA2A" opacity="1.000000" stroke="none" 
	d="
M75.304245,68.770844 
	C73.460060,65.871857 72.156784,62.874908 74.930969,59.475685 
	C78.018906,60.535076 79.412209,62.839836 78.929764,66.587585 
	C78.954453,66.979080 78.997948,67.003067 78.986404,66.981537 
	C77.853767,67.532097 76.732681,68.104187 75.304245,68.770844 
z"/>
<path fill="#FECA2A" opacity="1.000000" stroke="none" 
	d="
M29.320456,58.758270 
	C27.459797,55.871773 26.157379,52.874939 28.931023,49.475807 
	C34.263969,52.985714 34.350777,54.262306 29.320456,58.758270 
z"/>
</svg>